<?xml version="1.0" encoding="UTF-8"?>
<svg width="1000px" height="355px" viewBox="0 0 1000 355" version="1.1" xmlns="http://www.w3.org/2000/svg" xmlns:xlink="http://www.w3.org/1999/xlink">
    <!-- Generator: Sketch 49.3 (51167) - http://www.bohemiancoding.com/sketch -->
    <title>footer_image</title>
    <desc>Created with Sketch.</desc>
    <defs>
        <rect id="path-1" x="0" y="0" width="1024" height="368"></rect>
        <ellipse id="path-3" cx="573.13119" cy="582.624434" rx="441.465916" ry="448.778281"></ellipse>
        <filter x="-5.0%" y="-5.0%" width="110.1%" height="109.9%" filterUnits="objectBoundingBox" id="filter-4">
            <feGaussianBlur stdDeviation="36.5" in="SourceAlpha" result="shadowBlurInner1"></feGaussianBlur>
            <feOffset dx="0" dy="-16" in="shadowBlurInner1" result="shadowOffsetInner1"></feOffset>
            <feComposite in="shadowOffsetInner1" in2="SourceAlpha" operator="arithmetic" k2="-1" k3="1" result="shadowInnerInner1"></feComposite>
            <feColorMatrix values="0 0 0 0 0.827008929   0 0 0 0 0.827008929   0 0 0 0 0.827008929  0 0 0 0.5 0" type="matrix" in="shadowInnerInner1"></feColorMatrix>
        </filter>
        <path d="M474.988162,1131.96237 L566.330095,1145.01595 L566.415132,1145.02997 L812.061337,1103.38328 L812.224517,1103.69169 L812.624424,1103.30151 L813.290935,1103.24543 L813.088684,1102.8459 L1023.69248,896.811026 L1023.81659,897.899797 L1024.54745,896.07038 L1024.752,896.01197 L1024.72672,895.799356 L1026.15397,894.402176 L1025.08985,894.705911 L1139.77577,606.578571 L1139.58271,605.774843 L1073.90377,333.044512 L1074.62314,333.423012 L1073.582,331.705744 L1073.54063,331.537521 L1073.451,331.490793 L1024.97724,251.526811 L1025.1611,251.459055 L1024.57733,250.865604 L1024.36359,250.512805 L1024.26476,250.550188 L869.578968,93.8184476 L869.519211,93.7016266 L869.429577,93.6689167 L866.809498,91.0124069 L867.889706,93.0778024 L684.831216,22.9314586 L686.727325,22.7912734 L683.668268,22.2211869 L684.27962,21.8006312 L682.562779,21.9267979 L682.45246,21.6511003 L682.231821,21.8029676 L680.765496,20.4898995 L681.181491,21.5319429 L679.455457,20.870736 L680.25527,21.588017 L566.511662,0.450423394 L566.405939,0.429395612 L316.484869,48.9545068 L316.296407,48.5619882 L315.885009,49.0479636 L315.271359,49.0923556 L315.469014,49.5012292 L90.1376155,284.021744 L60.3077853,347.742932 L60.2595207,347.79667 L60.2365375,347.897136 L58.6369103,351.312982 L59.6941352,350.144772 L0.776830466,595.017964 L0.337852303,595.017964 L0.609053472,595.630106 L0.418293328,596.186174 L0.813603506,596.186174 L82.6956716,848.67376 L148.248212,931.023227 L146.657778,930.044267 L149.411159,932.740496 L148.871055,932.770869 L150.155813,933.560579 L150.128233,933.868986 L150.394838,933.852632 L151.137194,935.530181 L151.206143,934.738135 L153.102253,937.121283 L152.502393,935.768496 L294.570435,1074.90699 L469.318219,1130.64697 L467.088854,1130.83388 L470.538624,1131.32687 L469.745706,1131.78481 L471.915315,1131.6049 L472.004949,1131.82452 L472.283045,1131.66331 L473.475871,1132.39695 L473.280514,1131.91097 L476.659037,1132.9904 L474.988162,1131.96237 Z M566.401342,1143.84774 L477.502519,1131.13995 L737.29715,1109.55844 L798.749496,1104.4557 L566.401342,1143.84774 Z M474.86865,1130.18436 L746.96846,974.562417 L808.997683,1097.33663 L811.454582,1102.22909 L729.462194,1109.03742 L474.86865,1130.18436 Z M472.574931,1130.14931 L388.537044,920.521018 L391.361673,920.94391 L745.722773,973.926911 L472.574931,1130.14931 Z M471.101711,1129.57222 L152.647187,933.724128 L387.247689,920.404197 L471.101711,1129.57222 Z M467.920844,1128.98344 L295.271422,1073.97242 L154.858166,936.450731 L467.920844,1128.98344 Z M812.543983,1101.75947 L748.595667,974.548399 L1021.77798,896.850745 L1022.08596,896.761961 L812.543983,1101.75947 Z M746.511095,972.86384 L562.641299,945.37352 L388.603695,919.350471 L461.143113,794.695444 L575.429124,598.566987 L746.5042,972.86384 L746.511095,972.86384 Z M748.827796,972.616179 L990.091114,605.284195 L1023.49023,895.154504 L748.827796,972.616179 Z M747.572916,972.410574 L576.302483,597.466533 L989.279809,602.83329 L989.36025,602.961793 L750.103361,968.543799 L747.56832,972.401228 L747.572916,972.410574 Z M151.390008,932.628347 L180.298214,597.338029 L386.599564,919.268697 L151.390008,932.628347 Z M150.376451,930.967153 L2.1167481,596.186174 L178.864066,596.186174 L178.834188,596.237576 L179.236393,596.239912 L150.376451,930.967153 Z M148.41369,929.37605 L83.7551948,848.206476 L5.21947334,606.041195 L148.411392,929.37605 L148.41369,929.37605 Z M387.571752,918.644872 L180.967024,596.244585 L253.136413,596.454863 L574.367302,597.877743 L387.571752,918.644872 Z M1024.43254,893.243312 L1022.34337,875.12671 L991.132251,602.875345 L991.562036,602.908055 L991.541351,602.875345 L1074.09223,605.148682 L1138.39219,606.943053 L1024.43254,893.243312 Z M1138.26348,605.739797 L1060.98264,603.615991 L991.008142,601.662743 L964.051205,276.844261 L1138.26348,605.739797 Z M1137.61306,602.048253 L964.637276,275.484464 L1072.55006,332.331904 L1137.61306,602.048253 Z M988.498382,601.573959 L726.272133,598.221196 L576.48405,596.193184 L777.991115,263.094428 L781.730474,269.082673 L988.498382,601.573959 Z M989.585485,599.742206 L779.078218,262.643499 L962.302188,274.619989 L962.748061,275.019517 L989.585485,599.742206 Z M574.484516,596.274958 L180.904969,594.964227 L398.155492,220.183734 L574.484516,596.274958 Z M575.442914,595.59506 L399.173646,219.637012 L554.916662,237.288667 L776.972962,262.458922 L575.442914,595.59506 Z M179.119179,595.017964 L2.0386054,595.017964 L102.169295,304.320562 L179.119179,595.017964 Z M180.068383,594.10676 L102.943827,302.752824 L396.990246,219.889345 L180.068383,594.10676 Z M4.60352492,584.02978 L61.305254,348.366756 L100.774217,304.822893 L4.60352492,584.02978 Z M62.932461,344.848107 L91.0270634,284.769398 L303.851031,63.2650806 L102.511743,301.126676 L102.31179,300.367339 L101.796967,301.862648 L101.53496,301.935077 L101.599312,302.180401 L62.932461,344.848107 Z M1071.46525,330.444077 L964.669452,274.185415 L1023.87864,251.940358 L1071.46755,330.446413 L1071.46525,330.444077 Z M103.906821,301.266861 L316.032101,50.66243 L397.387855,218.564595 L103.906821,301.266861 Z M963.520294,273.370004 L871.415321,97.3300872 L1023.07883,250.996444 L1021.15284,251.718398 L963.520294,273.370004 Z M960.89332,273.355985 L958.149132,273.176081 L778.345056,261.332767 L683.642987,24.6253633 L960.89332,273.355985 Z M960.040646,270.444806 L684.925446,24.2141533 L868.705608,94.6408675 L960.040646,270.444806 Z M777.053403,261.293048 L557.541338,236.412509 L399.819472,218.534222 L681.923847,23.4314525 L777.053403,261.293048 Z M398.435886,218.071611 L398.261215,217.697783 L317.057149,50.1320626 L680.094388,23.2819216 L398.43129,218.073947 L398.435886,218.071611 Z M325.986103,48.3003092 L566.410536,1.6186335 L677.646683,22.2912795 L325.986103,48.3003092 Z" id="path-5"></path>
        <path d="M171.938939,376.698395 L163.841265,358.985034 L171.938939,376.698395 M172.988468,376.250251 L1.62366873,1.38241656 L1.91533199,0.824570577 L1.371047,0.822236493 L1.17813586,0.392765107 L2.04164285,0.404435525 L151.715422,2.43042011 L413.863283,5.97822722 L414.522396,7.03790118 L1.86021452,1.6765111 L172.999951,376.245583 L172.988468,376.250251 M175.528464,372.382674 L414.602776,7.16627578 L415.043715,7.8758372 L175.528464,372.382674 M0.66600273,0.81990241 L0.213580186,0.817568326 L0.0114828057,0.376426521 L0.649926802,0.385762856 L0.916327894,0.38809694 L0.66600273,0.81990241" id="path-7"></path>
        <path d="M207.91037,326.841423 L207.820922,326.827314 L280.29921,201.384788 L207.91037,326.841423 M205.9104,326.759122 L0.0372934668,2.75824476 L205.912694,326.759122 L205.9104,326.759122 M206.910385,326.175964 L206.880569,326.131287 L329.094361,114.510659 L206.910385,326.175964 M393.288367,3.30142851 L72.7242935,1.86939862 L0.63590848,1.54725069 L0.284996231,0.994661155 L0.610679495,0.425611511 L393.563592,2.02224254 L393.57506,2.02224254 L394.026888,2.02459398 L393.288367,3.30142851 M394.983296,2.59129218 L394.731006,2.02694543 L395.274576,2.02929687 L394.983296,2.59129218" id="path-9"></path>
        <path d="M0.876774447,337.830576 L0.90438939,337.523478 L1.05627158,337.616538 L1.1437189,337.81429 L0.876774447,337.830576 M3.39893926,337.686333 L238.29855,324.420649 L238.29855,324.422976 L3.39893926,337.68866 M2.13785685,336.595206 L31.1818734,1.58201771 L31.4073954,1.58201771 L31.2739232,1.08414743 L31.3337556,0.984108075 L31.6858461,1.53083478 L31.7548834,1.64018013 L238.623025,322.671124 L238.652942,322.715327 L238.379093,323.182953 L237.760059,323.089893 L237.838301,323.280666 L237.6519,323.292298 L31.0852211,2.72898055 L2.13785685,336.595206 M12.4244232,204.622358 L30.0220458,1.63552713 L30.0266482,1.58201771 L30.0289495,1.58201771 L12.4244232,204.622358" id="path-11"></path>
        <path d="M323.529567,214.104599 L322.340936,213.368892 L322.418804,213.324375 L323.334897,213.617252 L323.529567,214.104599 M322.631795,211.850617 L307.078813,172.80893 L322.631795,211.850617 M265.000334,176.513239 L2.54861837,14.081264 L2.57381095,13.7696428 L2.57610118,13.7696428 L236.958702,0.374616389 L236.960993,0.374616389 L237.146502,0.362901305 L237.348042,0.871335928 L237.093826,1.36102642 L237.572485,1.43131692 L237.604549,1.51097948 L3.82885947,14.8708607 L265.000334,176.513239 M194.861902,134.472491 L6.03435532,17.6098472 L6.03206508,17.6051612 L194.861902,134.472491 M1.49740072,14.8005702 L1.34624525,14.7068495 L0.0660041463,13.9149099 L0.60420926,13.8844506 L1.46991791,14.7373087 L1.49740072,14.8005702" id="path-13"></path>
        <path d="M330.702997,202.576404 L327.318938,201.499719 L326.398106,201.208408 L326.444148,201.182773 L329.029384,201.55099 L330.702997,202.576404 M323.350151,200.238925 L148.31606,144.640492 L6.0152516,5.85531919 L4.855003,3.24284305 L4.87341964,3.03076872 L325.136566,199.166901 L325.497992,200.061808 L323.350151,200.238925 M8.37488418,6.53582145 L149.018194,143.708298 L321.950486,198.579619 L8.37488418,6.53582145 M3.7891397,3.68330513 L0.161060725,0.145625571 L1.75410048,1.12209971 L3.77302513,3.64601733 L3.7891397,3.68330513" id="path-15"></path>
        <path d="M150.422262,343.950606 L148.561019,341.549253 L148.696382,339.948351 L149.833432,342.587485 L150.422262,343.950606 M147.636038,340.355639 L145.65748,337.805967 L81.3103672,254.827449 L0.934005495,0.411158429 L0.974614429,0.411158429 L5.25885702,10.3414595 L82.3504072,254.356595 L145.819916,336.146209 L147.636038,340.355639 M101.829159,231.313023 L2.21093088,0.411158429 L2.21318693,0.411158429 L101.829159,231.313023" id="path-17"></path>
        <path d="M99.8084964,43.889084 L99.7236174,43.8749171 L8.55213006,30.6831637 L5.97593852,30.3101018 L6.0355832,30.2746845 L11.0617948,29.8520384 L99.7947322,42.6943414 L331.709321,2.88532713 L270.371646,8.042082 L344.97797,1.76850247 L344.996322,1.80155859 L99.8084964,43.889084 M4.11089514,30.0409305 L0.667561654,29.5427275 L2.89276717,29.3538354 L5.03309371,29.1743879 L5.13632489,29.4388369 L4.11089514,30.0409305 M262.55131,7.51554522 L344.390699,0.632788601 L344.390699,0.635149753 L262.55131,7.51554522" id="path-19"></path>
        <path d="M85.2675023,215.871947 L85.1786583,215.649309 L85.7253908,215.60194 L85.6661615,215.637467 L85.6206004,215.66352 L85.5431466,215.708521 L85.2675023,215.871947 M84.8323943,214.763496 L84.7298819,214.498226 L84.3722277,213.588728 L1.25748494,1.55017408 L1.25748494,1.5478056 L1.22559221,1.46727713 L5.33519878,2.09729394 L2.53547235,1.66859829 L85.8324593,214.173744 L162.311235,169.440181 L85.2697803,214.505331 L84.8323943,214.763496 M88.0740629,214.211639 L320.355678,78.3553819 L88.1059556,214.209271 L88.0740629,214.211639 M175.104778,26.8621654 L2.51041377,0.470145254 L2.60153587,0.481987675 L175.104778,26.8621654 M1.00234307,0.90120939 L0.801874454,0.387248305 L0.724420671,0.193032595 L1.33721677,0.287771966 L1.12763595,0.654887027 L1.00234307,0.90120939" id="path-21"></path>
        <path d="M0.032265956,160.030143 L0.828981291,159.56833 L1.86124725,158.967501 L2.30463665,158.710676 L277.33077,0.836447839 L278.095155,0.951901202 L277.730283,1.49853754 L278.48543,1.28412415 L278.582422,1.47733182 L5.14740934,158.418508 L5.17973982,158.416152 L260.992333,137.090266 L343.377317,130.224326 L340.908654,125.290461 L343.790685,131.01365 L343.968503,131.355297 L268.864804,137.615697 L7.82622032,159.379834 L2.76650061,159.801592 L2.21226386,159.848716 L0.032265956,160.030143 M344.552761,131.305817 L345.019243,130.84636 L345.222463,131.249269 L344.552761,131.305817 M344.448841,129.771937 L279.937992,1.54330517 L280.21742,1.46319467 L344.471935,129.750731 L344.448841,129.771937" id="path-23"></path>
        <path d="M64.6458117,211.244972 L64.4845378,210.934785 L64.4663661,210.901886 L64.2914636,210.561149 L0.152187961,81.3702615 L0.0567865528,81.1775691 L0.679167171,80.9989761 L1.60365225,81.1399705 L1.44237844,80.7804346 L271.750912,3.20997422 L1.76038314,81.3561621 L1.48553622,81.4360589 L64.9388303,209.322748 L64.9615449,209.301599 L272.055288,3.12067772 L273.588525,2.68124494 L273.64304,3.17002578 L65.4998814,210.394306 L65.0410461,210.852538 L64.6458117,211.244972 M274.665198,2.15251565 L274.649298,2.00917127 L275.024089,1.05275875 L276.075776,0.747270718 L274.665198,2.15251565" id="path-25"></path>
        <path d="M152.174343,339.484715 L151.427574,337.81429 L151.339719,337.616538 L151.311976,337.553723 L151.295792,337.516499 L149.432338,333.356723 L0.998774175,1.58201771 L2.26573771,1.58201771 L151.409079,334.941067 L180.447513,1.58201771 L180.634783,1.58201771 L180.875229,2.4870249 L181.406984,1.58201771 L181.605814,1.58201771 L152.426349,336.59288 L152.400917,336.902304 L152.174343,339.484715 M0.751392609,1.02831151 L0.478579292,0.418769394 L0.920166948,0.418769394 L0.820751926,0.830559298 L0.751392609,1.02831151" id="path-27"></path>
        <path d="M364.612685,375.839194 L363.671711,375.700009 L364.448535,375.484271 L364.612685,375.839194 M362.647505,375.549224 L361.88224,375.435556 L5.41465074,322.830265 L1.24384376,322.213208 L0.760640518,322.143615 L1.01726999,321.658784 L1.14442874,321.417529 L1.35713065,321.057965 L189.508152,2.0672052 L190.252608,0.807573293 L190.504614,0.378416936 L190.652581,0.127882414 L190.768179,0.383056464 L190.962386,0.809893057 L191.216703,1.36663644 L363.731822,373.934668 L363.165388,374.783702 L362.647505,375.549224 M362.675248,374.380063 L190.576285,2.7515356 L2.54779894,321.236587 L362.675248,374.380063" id="path-29"></path>
        <path d="M0.416265466,368.990038 L0.77515648,368.451055 L1.28396399,367.684397 L1.84047221,366.834104 L1.8472866,366.820165 L241.250307,0.176690053 L241.438839,0.478706628 L241.563769,0.687795026 L274.690772,291.174306 L273.157535,291.608745 L272.853159,291.697027 L2.54462546,368.386005 L1.78141419,368.602063 L1.15903358,368.778627 L0.416265466,368.990038 M241.536511,1.7797011 L3.09204783,367.0339 L274.545399,290.010381 L241.536511,1.7797011 M275.590271,290.921077 L275.751545,290.50987 L275.767445,290.651585 L275.792431,290.862997 L275.590271,290.921077 M275.467612,288.130908 L273.411939,270.095872 L275.476698,288.109999 L275.467612,288.130908" id="path-31"></path>
        <path d="M33.7095493,293.187444 L33.5858766,292.105712 L33.530911,291.622879 L0.130130713,1.37298491 L1.2500554,3.19521487 L0.98896866,0.0568009789 L1.1378339,0.059122291 L1.14012414,0.0730501632 L34.3141712,288.58196 L34.3233322,288.561069 L147.882321,4.11213312 L83.8084295,2.32936547 L148.791544,4.11213312 L148.619776,3.78482812 L149.261042,3.75000844 L34.9783392,290.01421 L34.6004505,290.958984 L34.4378439,291.369856 L33.7095493,293.187444 M149.261042,3.75000844 L149.068662,2.9514771 L149.261042,3.75000844 M147.77239,2.9514771 L70.7449318,0.80658477 L147.754068,2.91665742 L147.77239,2.9514771" id="path-33"></path>
        <linearGradient x1="50%" y1="0%" x2="50%" y2="100%" id="linearGradient-35">
            <stop stop-color="#4CA1C0" offset="0%"></stop>
            <stop stop-color="#763093" offset="100%"></stop>
        </linearGradient>
    </defs>
    <g id="🖥-Landing" stroke="none" stroke-width="1" fill="none" fill-rule="evenodd">
        <g id="Desktop" transform="translate(-225.000000, -1937.000000)">
            <g id="Group-2" transform="translate(720.000000, 1598.000000) rotate(-180.000000) translate(-720.000000, -1598.000000) translate(0.000000, 904.000000)">
                <g id="footer_image" transform="translate(211.000000, -8.000000)">
                    <mask id="mask-2" fill="white">
                        <use xlink:href="#path-1"></use>
                    </mask>
                    <g id="Mask"></g>
                    <g id="Group-2" opacity="0.699999988" mask="url(#mask-2)">
                        <g transform="translate(-61.000000, -797.000000)" id="Group-14">
                            <g>
                                <g id="Oval-15" fill="black" fill-opacity="1">
                                    <use filter="url(#filter-4)" xlink:href="#path-3"></use>
                                </g>
                                <g id="549">
                                    <g id="Group-3" transform="translate(0.000000, 7.598583)">
                                        <mask id="mask-6" fill="white">
                                            <use xlink:href="#path-5"></use>
                                        </mask>
                                        <use id="Clip-2" stroke="#000000" opacity="0.0399999991" xlink:href="#path-5"></use>
                                    </g>
                                    <g id="Group-37" transform="translate(579.429335, 603.620683)">
                                        <mask id="mask-8" fill="white">
                                            <use xlink:href="#path-7"></use>
                                        </mask>
                                        <g id="Clip-36"></g>
                                        <path d="M171.938939,376.698395 L163.841265,358.985034 L171.938939,376.698395 M172.988468,376.250251 L1.62366873,1.38241656 L1.91533199,0.824570577 L1.371047,0.822236493 L1.17813586,0.392765107 L2.04164285,0.404435525 L151.715422,2.43042011 L413.863283,5.97822722 L414.522396,7.03790118 L1.86021452,1.6765111 L172.999951,376.245583 L172.988468,376.250251 M175.528464,372.382674 L414.602776,7.16627578 L415.043715,7.8758372 L175.528464,372.382674 M0.66600273,0.81990241 L0.213580186,0.817568326 L0.0114828057,0.376426521 L0.649926802,0.385762856 L0.916327894,0.38809694 L0.66600273,0.81990241" id="Fill-35" mask="url(#mask-8)"></path>
                                    </g>
                                    <g id="Group-40" transform="translate(190.072175, 602.430939)">
                                        <mask id="mask-10" fill="white">
                                            <use xlink:href="#path-9"></use>
                                        </mask>
                                        <g id="Clip-39"></g>
                                        <path d="M207.91037,326.841423 L207.820922,326.827314 L280.29921,201.384788 L207.91037,326.841423 M205.9104,326.759122 L0.0372934668,2.75824476 L205.912694,326.759122 L205.9104,326.759122 M206.910385,326.175964 L206.880569,326.131287 L329.094361,114.510659 L206.910385,326.175964 M393.288367,3.30142851 L72.7242935,1.86939862 L0.63590848,1.54725069 L0.284996231,0.994661155 L0.610679495,0.425611511 L393.563592,2.02224254 L393.57506,2.02224254 L394.026888,2.02459398 L393.288367,3.30142851 M394.983296,2.59129218 L394.731006,2.02694543 L395.274576,2.02929687 L394.983296,2.59129218" id="Fill-38" mask="url(#mask-10)"></path>
                                    </g>
                                    <g id="Group-43" transform="translate(157.453624, 602.430939)">
                                        <mask id="mask-12" fill="white">
                                            <use xlink:href="#path-11"></use>
                                        </mask>
                                        <g id="Clip-42"></g>
                                        <path d="M0.876774447,337.830576 L0.90438939,337.523478 L1.05627158,337.616538 L1.1437189,337.81429 L0.876774447,337.830576 M3.39893926,337.686333 L238.29855,324.420649 L238.29855,324.422976 L3.39893926,337.68866 M2.13785685,336.595206 L31.1818734,1.58201771 L31.4073954,1.58201771 L31.2739232,1.08414743 L31.3337556,0.984108075 L31.6858461,1.53083478 L31.7548834,1.64018013 L238.623025,322.671124 L238.652942,322.715327 L238.379093,323.182953 L237.760059,323.089893 L237.838301,323.280666 L237.6519,323.292298 L31.0852211,2.72898055 L2.13785685,336.595206 M12.4244232,204.622358 L30.0220458,1.63552713 L30.0266482,1.58201771 L30.0289495,1.58201771 L12.4244232,204.622358" id="Fill-41" mask="url(#mask-12)"></path>
                                    </g>
                                    <g id="Group-46" transform="translate(152.999530, 931.158791)">
                                        <mask id="mask-14" fill="white">
                                            <use xlink:href="#path-13"></use>
                                        </mask>
                                        <g id="Clip-45"></g>
                                        <path d="M323.529567,214.104599 L322.340936,213.368892 L322.418804,213.324375 L323.334897,213.617252 L323.529567,214.104599 M322.631795,211.850617 L307.078813,172.80893 L322.631795,211.850617 M265.000334,176.513239 L2.54861837,14.081264 L2.57381095,13.7696428 L2.57610118,13.7696428 L236.958702,0.374616389 L236.960993,0.374616389 L237.146502,0.362901305 L237.348042,0.871335928 L237.093826,1.36102642 L237.572485,1.43131692 L237.604549,1.51097948 L3.82885947,14.8708607 L265.000334,176.513239 M194.861902,134.472491 L6.03435532,17.6098472 L6.03206508,17.6051612 L194.861902,134.472491 M1.49740072,14.8005702 L1.34624525,14.7068495 L0.0660041463,13.9149099 L0.60420926,13.8844506 L1.46991791,14.7373087 L1.49740072,14.8005702" id="Fill-44" mask="url(#mask-14)"></path>
                                    </g>
                                    <g id="Group-49" transform="translate(152.999530, 936.880351)">
                                        <mask id="mask-16" fill="white">
                                            <use xlink:href="#path-15"></use>
                                        </mask>
                                        <g id="Clip-48"></g>
                                        <path d="M330.702997,202.576404 L327.318938,201.499719 L326.398106,201.208408 L326.444148,201.182773 L329.029384,201.55099 L330.702997,202.576404 M323.350151,200.238925 L148.31606,144.640492 L6.0152516,5.85531919 L4.855003,3.24284305 L4.87341964,3.03076872 L325.136566,199.166901 L325.497992,200.061808 L323.350151,200.238925 M8.37488418,6.53582145 L149.018194,143.708298 L321.950486,198.579619 L8.37488418,6.53582145 M3.7891397,3.68330513 L0.161060725,0.145625571 L1.75410048,1.12209971 L3.77302513,3.64601733 L3.7891397,3.68330513" id="Fill-47" mask="url(#mask-16)"></path>
                                    </g>
                                    <g id="Group-52" transform="translate(6.298145, 603.620683)">
                                        <mask id="mask-18" fill="white">
                                            <use xlink:href="#path-17"></use>
                                        </mask>
                                        <g id="Clip-51"></g>
                                        <path d="M150.422262,343.950606 L148.561019,341.549253 L148.696382,339.948351 L149.833432,342.587485 L150.422262,343.950606 M147.636038,340.355639 L145.65748,337.805967 L81.3103672,254.827449 L0.934005495,0.411158429 L0.974614429,0.411158429 L5.25885702,10.3414595 L82.3504072,254.356595 L145.819916,336.146209 L147.636038,340.355639 M101.829159,231.313023 L2.21093088,0.411158429 L2.21318693,0.411158429 L101.829159,231.313023" id="Fill-50" mask="url(#mask-18)"></path>
                                    </g>
                                    <g id="Group-55" transform="translate(472.360871, 1108.729282)">
                                        <mask id="mask-20" fill="white">
                                            <use xlink:href="#path-19"></use>
                                        </mask>
                                        <g id="Clip-54"></g>
                                        <path d="M99.8084964,43.889084 L99.7236174,43.8749171 L8.55213006,30.6831637 L5.97593852,30.3101018 L6.0355832,30.2746845 L11.0617948,29.8520384 L99.7947322,42.6943414 L331.709321,2.88532713 L270.371646,8.042082 L344.97797,1.76850247 L344.996322,1.80155859 L99.8084964,43.889084 M4.11089514,30.0409305 L0.667561654,29.5427275 L2.89276717,29.3538354 L5.03309371,29.1743879 L5.13632489,29.4388369 L4.11089514,30.0409305 M262.55131,7.51554522 L344.390699,0.632788601 L344.390699,0.635149753 L262.55131,7.51554522" id="Fill-53" mask="url(#mask-20)"></path>
                                    </g>
                                    <g id="Group-58" transform="translate(390.484986, 931.158791)">
                                        <mask id="mask-22" fill="white">
                                            <use xlink:href="#path-21"></use>
                                        </mask>
                                        <g id="Clip-57"></g>
                                        <path d="M85.2675023,215.871947 L85.1786583,215.649309 L85.7253908,215.60194 L85.6661615,215.637467 L85.6206004,215.66352 L85.5431466,215.708521 L85.2675023,215.871947 M84.8323943,214.763496 L84.7298819,214.498226 L84.3722277,213.588728 L1.25748494,1.55017408 L1.25748494,1.5478056 L1.22559221,1.46727713 L5.33519878,2.09729394 L2.53547235,1.66859829 L85.8324593,214.173744 L162.311235,169.440181 L85.2697803,214.505331 L84.8323943,214.763496 M88.0740629,214.211639 L320.355678,78.3553819 L88.1059556,214.209271 L88.0740629,214.211639 M175.104778,26.8621654 L2.51041377,0.470145254 L2.60153587,0.481987675 L175.104778,26.8621654 M1.00234307,0.90120939 L0.801874454,0.387248305 L0.724420671,0.193032595 L1.33721677,0.287771966 L1.12763595,0.654887027 L1.00234307,0.90120939" id="Fill-56" mask="url(#mask-22)"></path>
                                    </g>
                                    <g id="Group-61" transform="translate(473.360871, 980.552486)">
                                        <mask id="mask-24" fill="white">
                                            <use xlink:href="#path-23"></use>
                                        </mask>
                                        <g id="Clip-60"></g>
                                        <path d="M0.032265956,160.030143 L0.828981291,159.56833 L1.86124725,158.967501 L2.30463665,158.710676 L277.33077,0.836447839 L278.095155,0.951901202 L277.730283,1.49853754 L278.48543,1.28412415 L278.582422,1.47733182 L5.14740934,158.418508 L5.17973982,158.416152 L260.992333,137.090266 L343.377317,130.224326 L340.908654,125.290461 L343.790685,131.01365 L343.968503,131.355297 L268.864804,137.615697 L7.82622032,159.379834 L2.76650061,159.801592 L2.21226386,159.848716 L0.032265956,160.030143 M344.552761,131.305817 L345.019243,130.84636 L345.222463,131.249269 L344.552761,131.305817 M344.448841,129.771937 L279.937992,1.54330517 L280.21742,1.46319467 L344.471935,129.750731 L344.448841,129.771937" id="Fill-59" mask="url(#mask-24)"></path>
                                    </g>
                                    <g id="Group-64" transform="translate(755.777393, 903.646409)">
                                        <mask id="mask-26" fill="white">
                                            <use xlink:href="#path-25"></use>
                                        </mask>
                                        <g id="Clip-63"></g>
                                        <path d="M64.6458117,211.244972 L64.4845378,210.934785 L64.4663661,210.901886 L64.2914636,210.561149 L0.152187961,81.3702615 L0.0567865528,81.1775691 L0.679167171,80.9989761 L1.60365225,81.1399705 L1.44237844,80.7804346 L271.750912,3.20997422 L1.76038314,81.3561621 L1.48553622,81.4360589 L64.9388303,209.322748 L64.9615449,209.301599 L272.055288,3.12067772 L273.588525,2.68124494 L273.64304,3.17002578 L65.4998814,210.394306 L65.0410461,210.852538 L64.6458117,211.244972 M274.665198,2.15251565 L274.649298,2.00917127 L275.024089,1.05275875 L276.075776,0.747270718 L274.665198,2.15251565" id="Fill-62" mask="url(#mask-26)"></path>
                                    </g>
                                    <g id="Group-67" transform="translate(6.298145, 602.430939)">
                                        <mask id="mask-28" fill="white">
                                            <use xlink:href="#path-27"></use>
                                        </mask>
                                        <g id="Clip-66"></g>
                                        <path d="M152.174343,339.484715 L151.427574,337.81429 L151.339719,337.616538 L151.311976,337.553723 L151.295792,337.516499 L149.432338,333.356723 L0.998774175,1.58201771 L2.26573771,1.58201771 L151.409079,334.941067 L180.447513,1.58201771 L180.634783,1.58201771 L180.875229,2.4870249 L181.406984,1.58201771 L181.605814,1.58201771 L152.426349,336.59288 L152.400917,336.902304 L152.174343,339.484715 M0.751392609,1.02831151 L0.478579292,0.418769394 L0.920166948,0.418769394 L0.820751926,0.830559298 L0.751392609,1.02831151" id="Fill-65" mask="url(#mask-28)"></path>
                                    </g>
                                    <g id="Group-85" transform="translate(390.484986, 603.620683)">
                                        <mask id="mask-30" fill="white">
                                            <use xlink:href="#path-29"></use>
                                        </mask>
                                        <g id="Clip-84"></g>
                                        <path d="M364.612685,375.839194 L363.671711,375.700009 L364.448535,375.484271 L364.612685,375.839194 M362.647505,375.549224 L361.88224,375.435556 L5.41465074,322.830265 L1.24384376,322.213208 L0.760640518,322.143615 L1.01726999,321.658784 L1.14442874,321.417529 L1.35713065,321.057965 L189.508152,2.0672052 L190.252608,0.807573293 L190.504614,0.378416936 L190.652581,0.127882414 L190.768179,0.383056464 L190.962386,0.809893057 L191.216703,1.36663644 L363.731822,373.934668 L363.165388,374.783702 L362.647505,375.549224 M362.675248,374.380063 L190.576285,2.7515356 L2.54779894,321.236587 L362.675248,374.380063" id="Fill-83" mask="url(#mask-30)"></path>
                                    </g>
                                    <g id="Group-88" transform="translate(750.648463, 610.716802)">
                                        <mask id="mask-32" fill="white">
                                            <use xlink:href="#path-31"></use>
                                        </mask>
                                        <g id="Clip-87"></g>
                                        <path d="M0.416265466,368.990038 L0.77515648,368.451055 L1.28396399,367.684397 L1.84047221,366.834104 L1.8472866,366.820165 L241.250307,0.176690053 L241.438839,0.478706628 L241.563769,0.687795026 L274.690772,291.174306 L273.157535,291.608745 L272.853159,291.697027 L2.54462546,368.386005 L1.78141419,368.602063 L1.15903358,368.778627 L0.416265466,368.990038 M241.536511,1.7797011 L3.09204783,367.0339 L274.545399,290.010381 L241.536511,1.7797011 M275.590271,290.921077 L275.751545,290.50987 L275.767445,290.651585 L275.792431,290.862997 L275.590271,290.921077 M275.467612,288.130908 L273.411939,270.095872 L275.476698,288.109999 L275.467612,288.130908" id="Fill-86" mask="url(#mask-32)"></path>
                                    </g>
                                    <g id="Group-91" transform="translate(996.950952, 610.029523)">
                                        <mask id="mask-34" fill="white">
                                            <use xlink:href="#path-33"></use>
                                        </mask>
                                        <g id="Clip-90"></g>
                                        <path d="M33.7095493,293.187444 L33.5858766,292.105712 L33.530911,291.622879 L0.130130713,1.37298491 L1.2500554,3.19521487 L0.98896866,0.0568009789 L1.1378339,0.059122291 L1.14012414,0.0730501632 L34.3141712,288.58196 L34.3233322,288.561069 L147.882321,4.11213312 L83.8084295,2.32936547 L148.791544,4.11213312 L148.619776,3.78482812 L149.261042,3.75000844 L34.9783392,290.01421 L34.6004505,290.958984 L34.4378439,291.369856 L33.7095493,293.187444 M149.261042,3.75000844 L149.068662,2.9514771 L149.261042,3.75000844 M147.77239,2.9514771 L70.7449318,0.80658477 L147.754068,2.91665742 L147.77239,2.9514771" id="Fill-89" mask="url(#mask-34)"></path>
                                    </g>
                                    <polyline id="Fill-119" fill-opacity="0.100000001" fill="#000000" points="779.765047 858.78453 768.373683 660.176974 769.578608 660.110497 780.969973 858.720428 779.765047 858.78453"></polyline>
                                    <polyline id="Fill-120" fill-opacity="0.100000001" fill="#000000" points="1032.67609 903.646409 780.969973 853.52692 781.187361 852.375691 1032.89577 902.497525 1032.67609 903.646409"></polyline>
                                    <polyline id="Fill-121" fill-opacity="0.100000001" fill="#000000" points="781.579798 852.375691 780.969973 851.39789 1145.65255 615.248619 1146.26238 616.228742 781.579798 852.375691"></polyline>
                                    <polyline id="Fill-122" fill-opacity="0.100000001" fill="#000000" points="817.554944 1108.72928 774.671828 852.566136 775.875727 852.375691 818.758842 1108.53884 817.554944 1108.72928"></polyline>
                                    <polygon id="Fill-123" fill-opacity="0.100000001" fill="#000000" points="778.177482 852.375691 780.969973 853.224463 475.5 1139.5"></polygon>
                                    <polyline id="Fill-124" fill-opacity="0.100000001" fill="#000000" points="780.682729 852.375691 384.186841 750.94265 384.474086 749.834254 780.969973 851.267295 780.682729 852.375691"></polyline>
                                    <polyline id="Fill-125" fill-opacity="0.100000001" fill="#000000" points="334.920386 980.552486 333.801682 980.306493 383.068137 749.834254 384.186841 750.077926 334.920386 980.552486"></polyline>
                                    <polyline id="Fill-126" fill-opacity="0.100000001" fill="#000000" points="477.829874 1140.77348 333.801682 981.349034 334.630823 980.552486 478.659016 1139.97693 477.829874 1140.77348"></polyline>
                                    <polyline id="Fill-127" fill-opacity="0.100000001" fill="#000000" points="303.375678 1083.09392 302.310957 1082.74478 332.734729 980.552486 333.801682 980.89929 303.375678 1083.09392"></polyline>
                                    <polyline id="Fill-128" fill-opacity="0.100000001" fill="#000000" points="333.537594 980.552486 157.453624 943.156172 157.715395 942.099448 333.801682 979.495761 333.537594 980.552486"></polyline>
                                    <polyline id="Fill-129" fill-opacity="0.100000001" fill="#000000" points="334.114814 980.552486 333.801682 979.44211 780.654539 852.375691 780.969973 853.488381 334.114814 980.552486"></polyline>
                                    <polyline id="Fill-130" fill-opacity="0.100000001" fill="#000000" points="332.927579 980.552486 144.857334 757.006593 145.731437 756.243094 333.801682 979.788987 332.927579 980.552486"></polyline>
                                    <polyline id="Fill-134" fill-opacity="0.100000001" fill="#000000" points="89.2084809 858.78453 88.1740292 858.237251 143.822882 756.243094 144.857334 756.787963 89.2084809 858.78453"></polyline>
                                    <path d="M340.099827,980.552486 C340.099827,984.092882 337.279621,986.961326 333.801682,986.961326 C330.323743,986.961326 327.503537,984.092882 327.503537,980.552486 C327.503537,977.014498 330.323743,974.143646 333.801682,974.143646 C337.279621,974.143646 340.099827,977.014498 340.099827,980.552486" id="Fill-142" fill-opacity="0.200000003" fill="#000000"></path>
                                    <path d="M785.268118,852.375691 C785.268118,855.916087 782.446852,858.78453 778.969973,858.78453 C775.490727,858.78453 772.671828,855.916087 772.671828,852.375691 C772.671828,848.837703 775.490727,845.966851 778.969973,845.966851 C782.446852,845.966851 785.268118,848.837703 785.268118,852.375691" id="Fill-143" fill="url(#linearGradient-35)"></path>
                                    <path d="M755.777393,980.552486 C755.777393,984.090584 752.957444,986.961326 749.478469,986.961326 C746.001052,986.961326 743.181103,984.090584 743.181103,980.552486 C743.181103,977.012803 746.001052,974.143646 749.478469,974.143646 C752.957444,974.143646 755.777393,977.012803 755.777393,980.552486" id="Fill-150" fill-opacity="0.200000003" fill="#000000"></path>
                                    <path d="M1032.89577,900.237569 C1032.89577,903.775667 1030.07426,906.646409 1026.59685,906.646409 C1023.11787,906.646409 1020.29948,903.775667 1020.29948,900.237569 C1020.29948,896.697886 1023.11787,893.828729 1026.59685,893.828729 C1030.07426,893.828729 1032.89577,896.697886 1032.89577,900.237569" id="Fill-151" fill="url(#linearGradient-35)"></path>
                                    <path d="M820.056987,1111.13921 C820.056987,1114.67805 817.235008,1117.54696 813.756705,1117.54696 C810.278401,1117.54696 807.460698,1114.67805 807.460698,1111.13921 C807.460698,1107.60037 810.278401,1104.72928 813.756705,1104.72928 C817.235008,1104.72928 820.056987,1107.60037 820.056987,1111.13921" id="Fill-152" fill-opacity="0.200000003" fill="#000000"></path>
                                    <path d="M575.429335,1153.59116 C575.429335,1157.13003 572.607676,1160 569.13119,1160 C565.654704,1160 562.833045,1157.13003 562.833045,1153.59116 C562.833045,1150.05229 565.654704,1147.18232 569.13119,1147.18232 C572.607676,1147.18232 575.429335,1150.05229 575.429335,1153.59116" id="Fill-153" fill-opacity="0.200000003" fill="#000000"></path>
                                    <path d="M481.659016,1140.77348 C481.659016,1144.31158 478.837858,1147.18232 475.360871,1147.18232 C471.882326,1147.18232 469.062726,1144.31158 469.062726,1140.77348 C469.062726,1137.23538 471.882326,1134.36464 475.360871,1134.36464 C478.837858,1134.36464 481.659016,1137.23538 481.659016,1140.77348" id="Fill-154" fill-opacity="0.200000003" fill="#000000"></path>
                                    <path d="M308.609102,1083.09517 C308.609102,1086.63384 305.791091,1089.50276 302.312186,1089.50276 C298.833281,1089.50276 296.012812,1086.63384 296.012812,1083.09517 C296.012812,1079.5565 298.833281,1076.68508 302.312186,1076.68508 C305.791091,1076.68508 308.609102,1079.5565 308.609102,1083.09517" id="Fill-155" fill-opacity="0.200000003" fill="#000000"></path>
                                    <path d="M396.783131,929.281768 C396.783131,932.819866 393.963531,935.690608 390.484986,935.690608 C387.007999,935.690608 384.186841,932.819866 384.186841,929.281768 C384.186841,925.742085 387.007999,922.872928 390.484986,922.872928 C393.963531,922.872928 396.783131,925.742085 396.783131,929.281768" id="Fill-156" fill-opacity="0.200000003" fill="#000000"></path>
                                    <path d="M157.453624,942.099448 C157.453624,945.637546 154.633326,948.508287 151.15392,948.508287 C147.676073,948.508287 144.857334,945.637546 144.857334,942.099448 C144.857334,938.559764 147.676073,935.690608 151.15392,935.690608 C154.633326,935.690608 157.453624,938.559764 157.453624,942.099448" id="Fill-157" fill-opacity="0.200000003" fill="#000000"></path>
                                    <path d="M100.770319,858.785841 C100.770319,862.32374 97.9502542,865.19337 94.4708864,865.19337 C90.9940941,865.19337 88.1740292,862.32374 88.1740292,858.785841 C88.1740292,855.24532 90.9940941,852.375691 94.4708864,852.375691 C97.9502542,852.375691 100.770319,855.24532 100.770319,858.785841" id="Fill-158" fill-opacity="0.200000003" fill="#000000"></path>
                                </g>
                            </g>
                        </g>
                    </g>
                </g>
            </g>
        </g>
    </g>
</svg>