<?xml version="1.0" encoding="UTF-8"?>
<svg width="97px" height="34px" viewBox="0 0 97 34" version="1.1" xmlns="http://www.w3.org/2000/svg" xmlns:xlink="http://www.w3.org/1999/xlink">
    <!-- Generator: Sketch 49.3 (51167) - http://www.bohemiancoding.com/sketch -->
    <title>logo</title>
    <desc>Created with Sketch.</desc>
    <defs>
        <linearGradient x1="86.8540337%" y1="4.42260179%" x2="29.6378451%" y2="74.119055%" id="linearGradient-1">
            <stop stop-color="#9D25EE" offset="0%"></stop>
            <stop stop-color="#171717" offset="100%"></stop>
        </linearGradient>
    </defs>
    <g id="🖥-Landing" stroke="none" stroke-width="1" fill="none" fill-rule="evenodd">
        <g id="Desktop" transform="translate(-214.000000, -15.000000)">
            <g id="Group-8">
                <g id="logo" transform="translate(214.000000, 15.000000)">
                    <g id="Group-9">
                        <path d="M40.1342282,20.4931379 L40.1342282,10.7227299 L40.826315,10.7227299 C42.8986408,10.7227299 44.5785929,12.4073361 44.5785929,14.4854031 L44.5785929,24.255811 L43.8865061,24.255811 C41.8141802,24.255811 40.1342282,22.5712049 40.1342282,20.4931379 Z M60.1797304,17.4349207 C60.1797304,18.3769873 60.0351997,19.282807 59.7461338,20.1524069 C59.457068,21.0220068 59.0370256,21.7874244 58.4859939,22.4486827 C57.9349621,23.109941 57.2619909,23.6398455 56.4670599,24.0384121 C55.6721289,24.4369787 54.7688118,24.6362591 53.7570814,24.6362591 C52.9260172,24.6362591 52.1401313,24.4686824 51.3994002,24.1335241 C50.658669,23.7983658 50.0805461,23.3409269 49.665014,22.7611936 L49.6108144,22.7611936 L49.6108144,30.7777778 L49.3356474,30.7777778 C47.0330631,30.7777778 45.1664497,28.9059932 45.1664497,26.5970298 L45.1664497,14.4854031 C45.1664497,12.4073361 46.8464018,10.7227299 48.9187276,10.7227299 L49.3940161,10.7227299 L49.3940161,12.3803965 L49.4753155,12.3803965 C49.8908476,11.8368965 50.464454,11.3613412 51.1961518,10.9537163 C51.9278496,10.5460913 52.7905175,10.3422819 53.7841812,10.3422819 C54.7597784,10.3422819 55.6450291,10.532504 56.4399601,10.912954 C57.2348911,11.2934039 57.9078624,11.8097211 58.4588941,12.4619211 C59.0099258,13.114121 59.4344848,13.8704804 59.7325839,14.731022 C60.0306831,15.5915636 60.1797304,16.4928542 60.1797304,17.4349207 Z M55.8708646,17.4349207 C55.8708646,17.0001208 55.8031159,16.5743855 55.6676163,16.1577023 C55.5321167,15.741019 55.3333869,15.374162 55.071421,15.0571204 C54.8094551,14.7400787 54.4797444,14.4819201 54.0822789,14.2826368 C53.6848134,14.0833535 53.2241216,13.9837133 52.7001898,13.9837133 C52.1943247,13.9837133 51.7426661,14.0833535 51.3452006,14.2826368 C50.9477351,14.4819201 50.6089912,14.7446078 50.3289587,15.0707078 C50.0489262,15.3968078 49.8321301,15.7681938 49.6785639,16.1848771 C49.5249977,16.6015604 49.4482157,17.0272957 49.4482157,17.4620956 C49.4482157,17.8968956 49.5249977,18.3226308 49.6785639,18.7393141 C49.8321301,19.1559974 50.0489262,19.5273835 50.3289587,19.8534834 C50.6089912,20.1795834 50.9477351,20.4422711 51.3452006,20.6415544 C51.7426661,20.8408377 52.1943247,20.9404779 52.7001898,20.9404779 C53.2241216,20.9404779 53.6848134,20.8408377 54.0822789,20.6415544 C54.4797444,20.4422711 54.8094551,20.1795834 55.071421,19.8534834 C55.3333869,19.5273835 55.5321167,19.1514683 55.6676163,18.7257267 C55.8031159,18.299985 55.8708646,17.8697207 55.8708646,17.4349207 Z M78.1051956,24.255811 L78.1051956,16.8642487 C78.1051956,16.4837987 78.0780961,16.1169417 78.0238962,15.7636668 C77.9696964,15.4103918 77.8703315,15.1069422 77.7257986,14.8533089 C77.5812657,14.5996756 77.3870525,14.3958662 77.1431532,14.2418745 C76.899254,14.0878829 76.5785764,14.0108882 76.1811109,14.0108882 C75.801712,14.0108882 75.4720013,14.092412 75.1919688,14.2554619 C74.9119363,14.4185119 74.6770738,14.6359086 74.4873744,14.9076586 C74.2976749,15.1794086 74.1576608,15.4919164 74.0673277,15.8451913 C73.9769946,16.1984663 73.9318288,16.5653233 73.9318288,16.9457732 L73.9318288,24.255811 L69.4874641,24.255811 L69.4874641,16.5381503 C69.4874641,15.7591337 69.3339002,15.1431764 69.0267678,14.6902597 C68.7196353,14.2373431 68.2318441,14.0108882 67.5633794,14.0108882 C66.8587815,14.0108882 66.3122746,14.2916923 65.9238424,14.8533089 C65.5354102,15.4149255 65.3411971,16.1033485 65.3411971,16.9185984 L65.3411971,24.255811 L60.8697326,24.255811 L60.8697326,10.7227299 L65.1785984,10.7227299 L65.1785984,12.5977954 C65.3953974,12.3079287 65.5986438,12.0271247 65.8425431,11.7553747 C66.0864424,11.4836247 66.3800204,11.2435825 66.7232861,11.0352408 C67.0665517,10.8268992 67.4504615,10.6593226 67.8750269,10.5325059 C68.2995923,10.4056893 68.7648007,10.3422819 69.2706658,10.3422819 C70.246263,10.3422819 71.0727981,10.5415622 71.7502961,10.9401288 C72.4277941,11.3386955 72.9562346,11.9093618 73.3356335,12.6521451 C73.7872989,11.9455952 74.3654218,11.383987 75.0700197,10.9673037 C75.7746177,10.5506204 76.6327689,10.3422819 77.6444993,10.3422819 C78.5658965,10.3422819 79.3382327,10.5098585 79.9615308,10.8450168 C80.584829,11.1801751 81.08617,11.6149686 81.4655689,12.1494102 C81.8449678,12.6838518 82.1204795,13.2816928 82.2921123,13.942951 C82.4637451,14.6042093 82.5495603,15.2518704 82.5495603,15.8859536 L82.5495603,24.255811 L78.1051956,24.255811 Z M92.2533678,24.255811 L92.2533678,16.8642487 C92.2533678,16.4837987 92.2217517,16.1214708 92.1585185,15.7772542 C92.0952854,15.4330376 91.9914039,15.129588 91.846871,14.8668963 C91.7023381,14.6042047 91.4990917,14.3958662 91.2371258,14.2418745 C90.9751599,14.0878829 90.6454492,14.0108882 90.2479837,14.0108882 C89.8505182,14.0108882 89.5027411,14.0878829 89.204642,14.2418745 C88.9065429,14.3958662 88.6581307,14.6087338 88.4593979,14.8804838 C88.2606652,15.1522337 88.1116178,15.4647415 88.0122515,15.8180165 C87.9128851,16.1712915 87.8632027,16.5381484 87.8632027,16.9185984 L87.8632027,24.255811 L83.3917382,24.255811 L83.3917382,10.7227299 L87.700604,10.7227299 L87.700604,12.5977954 L87.7548035,12.5977954 C87.917403,12.3079287 88.1296826,12.0225956 88.3916485,11.7417872 C88.6536144,11.4609789 88.9607422,11.2209367 89.3130411,11.0216534 C89.6653401,10.8223701 90.0492499,10.6593226 90.464782,10.5325059 C90.8803141,10.4056893 91.3229395,10.3422819 91.7926714,10.3422819 C92.6960021,10.3422819 93.4638216,10.5053294 94.0961531,10.8314294 C94.7284846,11.1575294 95.2388588,11.5787355 95.6272909,12.0950605 C96.0157231,12.6113854 96.2957514,13.2046973 96.4673843,13.8750139 C96.6390171,14.5453305 96.7248322,15.215637 96.7248322,15.8859536 L96.7248322,24.255811 L92.2533678,24.255811 Z" id="ipmn-copy-6" fill="#242324"></path>
                        <g id="Group-4-Copy-3">
                            <g id="Group-3" transform="translate(2.000000, 1.000000)" fill="#9B9B9B" fill-opacity="0" stroke="#161616" stroke-width="0.600000024">
                                <ellipse id="Oval" cx="15.6546763" cy="15.9032258" rx="15.6546763" ry="15.9032258"></ellipse>
                                <path d="M11.118934,0.655068066 C7.91357503,4.5668903 5.98561151,9.59705915 5.98561151,15.0846774 C5.98561151,21.5940887 8.69839073,27.4598367 13.0381082,31.5788406" id="Oval"></path>
                                <path d="M10.8785194,0.704725986 C10.0947119,3.01263425 9.66906475,5.49009449 9.66906475,8.06854839 C9.66906475,17.7417577 15.6596906,25.9935666 24.0776386,29.2040964" id="Oval"></path>
                                <path d="M3.99380952,5.49615337 C7.33539823,13.6661511 15.2662531,19.4112903 24.5179856,19.4112903 C26.8906997,19.4112903 29.1765363,19.0334179 31.3203637,18.3336799" id="Oval"></path>
                                <path d="M2.41726619,25.0241935 C14.6867288,25.0241935 24.6330935,14.9199103 24.6330935,2.45564516" id="Oval"></path>
                                <path d="M24.5800097,2.79231386 C14.9521336,5.26543646 7.82733813,14.1241589 7.82733813,24.6733871 C7.82733813,26.4699634 8.03398192,28.2175092 8.42444097,29.8928334" id="Oval"></path>
                                <path d="M0.649303173,20.2808928 C4.49934918,23.534878 9.44915932,25.4919355 14.8489209,25.4919355 C21.1889644,25.4919355 26.9087091,22.7939544 30.9563356,18.4665114" id="Oval"></path>
                                <path d="M0.118365963,13.5072215 C2.97084039,22.6266641 11.3733635,29.233871 21.294964,29.233871 C22.338925,29.233871 23.3660676,29.1607195 24.3716959,29.019187" id="Oval"></path>
                                <path d="M10.6196468,14.1640404 C6.70078137,15.5812948 3.28902857,18.0846745 0.735419707,21.3175748" id="Oval"></path>
                                <path d="M18.143341,26.3467404 C15.8536007,27.1748231 13.8601596,28.6375141 12.3681204,30.5264541" id="Oval" transform="translate(15.255731, 28.436597) rotate(-195.000000) translate(-15.255731, -28.436597) "></path>
                            </g>
                            <g id="Group">
                                <path d="M10.0333333,27.2 C9.0024018,27.2 8.16666667,26.3601479 8.16666667,25.3241379 C8.16666667,24.2881279 9.0024018,23.4482759 10.0333333,23.4482759 C11.0642649,23.4482759 11.9,24.2881279 11.9,25.3241379 C11.9,26.3601479 11.0642649,27.2 10.0333333,27.2 Z M19.8333333,27.9034483 C18.9312682,27.9034483 18.2,27.1685777 18.2,26.262069 C18.2,25.3555602 18.9312682,24.6206897 19.8333333,24.6206897 C20.7353984,24.6206897 21.4666667,25.3555602 21.4666667,26.262069 C21.4666667,27.1685777 20.7353984,27.9034483 19.8333333,27.9034483 Z M14.5833333,34 C13.8745679,34 13.3,33.4226017 13.3,32.7103448 C13.3,31.9980879 13.8745679,31.4206897 14.5833333,31.4206897 C15.2920988,31.4206897 15.8666667,31.9980879 15.8666667,32.7103448 C15.8666667,33.4226017 15.2920988,34 14.5833333,34 Z M10.0333333,31.8896552 C9.51786757,31.8896552 9.1,31.4697291 9.1,30.9517241 C9.1,30.4337191 9.51786757,30.0137931 10.0333333,30.0137931 C10.5487991,30.0137931 10.9666667,30.4337191 10.9666667,30.9517241 C10.9666667,31.4697291 10.5487991,31.8896552 10.0333333,31.8896552 Z M4.9,27.6689655 C4.38453423,27.6689655 3.96666667,27.2490395 3.96666667,26.7310345 C3.96666667,26.2130295 4.38453423,25.7931034 4.9,25.7931034 C5.41546577,25.7931034 5.83333333,26.2130295 5.83333333,26.7310345 C5.83333333,27.2490395 5.41546577,27.6689655 4.9,27.6689655 Z M2.68333333,23.4482759 C1.9745679,23.4482759 1.4,22.8708776 1.4,22.1586207 C1.4,21.4463638 1.9745679,20.8689655 2.68333333,20.8689655 C3.39209876,20.8689655 3.96666667,21.4463638 3.96666667,22.1586207 C3.96666667,22.8708776 3.39209876,23.4482759 2.68333333,23.4482759 Z M1.75,16.8827586 C0.783501688,16.8827586 0,16.0953973 0,15.1241379 C0,14.1528785 0.783501688,13.3655172 1.75,13.3655172 C2.71649831,13.3655172 3.5,14.1528785 3.5,15.1241379 C3.5,16.0953973 2.71649831,16.8827586 1.75,16.8827586 Z M12.6,16.6482759 C11.8268014,16.6482759 11.2,16.0183868 11.2,15.2413793 C11.2,14.4643718 11.8268014,13.8344828 12.6,13.8344828 C13.3731986,13.8344828 14,14.4643718 14,15.2413793 C14,16.0183868 13.3731986,16.6482759 12.6,16.6482759 Z M28,14.0689655 C27.3556678,14.0689655 26.8333333,13.544058 26.8333333,12.8965517 C26.8333333,12.2490455 27.3556678,11.7241379 28,11.7241379 C28.6443322,11.7241379 29.1666667,12.2490455 29.1666667,12.8965517 C29.1666667,13.544058 28.6443322,14.0689655 28,14.0689655 Z M17.0333333,15.0068966 C16.5178676,15.0068966 16.1,14.5869705 16.1,14.0689655 C16.1,13.5509605 16.5178676,13.1310345 17.0333333,13.1310345 C17.5487991,13.1310345 17.9666667,13.5509605 17.9666667,14.0689655 C17.9666667,14.5869705 17.5487991,15.0068966 17.0333333,15.0068966 Z M16.3333333,23.6827586 C15.6890011,23.6827586 15.1666667,23.1578511 15.1666667,22.5103448 C15.1666667,21.8628386 15.6890011,21.337931 16.3333333,21.337931 C16.9776655,21.337931 17.5,21.8628386 17.5,22.5103448 C17.5,23.1578511 16.9776655,23.6827586 16.3333333,23.6827586 Z M20.1833333,20.6344828 C19.4745679,20.6344828 18.9,20.0570845 18.9,19.3448276 C18.9,18.6325707 19.4745679,18.0551724 20.1833333,18.0551724 C20.8920988,18.0551724 21.4666667,18.6325707 21.4666667,19.3448276 C21.4666667,20.0570845 20.8920988,20.6344828 20.1833333,20.6344828 Z M8.4,11.9586207 C7.88453423,11.9586207 7.46666667,11.5386947 7.46666667,11.0206897 C7.46666667,10.5026846 7.88453423,10.0827586 8.4,10.0827586 C8.91546577,10.0827586 9.33333333,10.5026846 9.33333333,11.0206897 C9.33333333,11.5386947 8.91546577,11.9586207 8.4,11.9586207 Z M5.6,7.50344828 C4.95566779,7.50344828 4.43333333,6.97854074 4.43333333,6.33103448 C4.43333333,5.68352822 4.95566779,5.15862069 5.6,5.15862069 C6.24433221,5.15862069 6.76666667,5.68352822 6.76666667,6.33103448 C6.76666667,6.97854074 6.24433221,7.50344828 5.6,7.50344828 Z M12.8333333,3.51724138 C11.9312682,3.51724138 11.2,2.78237083 11.2,1.87586207 C11.2,0.969353307 11.9312682,0.234482759 12.8333333,0.234482759 C13.7353984,0.234482759 14.4666667,0.969353307 14.4666667,1.87586207 C14.4666667,2.78237083 13.7353984,3.51724138 12.8333333,3.51724138 Z M19.95,2.57931034 C19.2412346,2.57931034 18.6666667,2.00191206 18.6666667,1.28965517 C18.6666667,0.577398288 19.2412346,0 19.95,0 C20.6587654,0 21.2333333,0.577398288 21.2333333,1.28965517 C21.2333333,2.00191206 20.6587654,2.57931034 19.95,2.57931034 Z M26.4833333,5.62758621 C25.516835,5.62758621 24.7333333,4.8402249 24.7333333,3.86896552 C24.7333333,2.89770613 25.516835,2.11034483 26.4833333,2.11034483 C27.4498316,2.11034483 28.2333333,2.89770613 28.2333333,3.86896552 C28.2333333,4.8402249 27.4498316,5.62758621 26.4833333,5.62758621 Z M32.7833333,12.8965517 C31.9457015,12.8965517 31.2666667,12.2141719 31.2666667,11.3724138 C31.2666667,10.5306557 31.9457015,9.84827586 32.7833333,9.84827586 C33.6209652,9.84827586 34.3,10.5306557 34.3,11.3724138 C34.3,12.2141719 33.6209652,12.8965517 32.7833333,12.8965517 Z M33.3666667,20.8689655 C32.4646016,20.8689655 31.7333333,20.134095 31.7333333,19.2275862 C31.7333333,18.3210774 32.4646016,17.5862069 33.3666667,17.5862069 C34.2687318,17.5862069 35,18.3210774 35,19.2275862 C35,20.134095 34.2687318,20.8689655 33.3666667,20.8689655 Z M26.7166667,31.8896552 C25.8790348,31.8896552 25.2,31.2072754 25.2,30.3655172 C25.2,29.5237591 25.8790348,28.8413793 26.7166667,28.8413793 C27.5542985,28.8413793 28.2333333,29.5237591 28.2333333,30.3655172 C28.2333333,31.2072754 27.5542985,31.8896552 26.7166667,31.8896552 Z" id="Combined-Shape" fill="url(#linearGradient-1)"></path>
                                <ellipse id="Oval-2" fill="#4C9CC0" cx="23.45" cy="22.862069" rx="1" ry="1"></ellipse>
                                <ellipse id="Oval-2" fill="#4C9CC0" cx="17.3833333" cy="5.51034483" rx="1.05" ry="1.05517241"></ellipse>
                                <ellipse id="Oval-2" fill="#4C9CC0" cx="5.25" cy="12.0758621" rx="1" ry="1"></ellipse>
                            </g>
                        </g>
                    </g>
                </g>
            </g>
        </g>
    </g>
</svg>