<?xml version="1.0" encoding="UTF-8"?>
<svg width="256px" height="256px" viewBox="0 0 256 256" version="1.1" xmlns="http://www.w3.org/2000/svg" xmlns:xlink="http://www.w3.org/1999/xlink">
    <!-- Generator: Sketch 49.3 (51167) - http://www.bohemiancoding.com/sketch -->
    <title>Group 4 Copy 3</title>
    <desc>Created with Sketch.</desc>
    <defs>
        <linearGradient x1="86.8540337%" y1="4.42260179%" x2="29.6378451%" y2="74.119055%" id="linearGradient-1">
            <stop stop-color="#9D25EE" offset="0%"></stop>
            <stop stop-color="#171717" offset="100%"></stop>
        </linearGradient>
    </defs>
    <g id="🖥-Landing" stroke="none" stroke-width="1" fill="none" fill-rule="evenodd">
        <g id="Desktop" transform="translate(-211.000000, -67.000000)">
            <g id="hero_image" transform="translate(-240.000000, 0.000000)">
                <g id="Group-12" transform="translate(-129.000000, -258.000000)">
                    <g id="Group-4-Copy-3" transform="translate(580.000000, 325.000000)">
                        <g id="Group-3" transform="translate(13.575758, 8.000000)" fill="#9B9B9B" fill-opacity="0" stroke="#161616">
                            <ellipse id="Oval" cx="115.749727" cy="119.548387" rx="115.749727" ry="119.548387"></ellipse>
                            <path d="M82.2127238,4.92430477 C58.5124941,34.3304168 44.2572487,72.1434101 44.2572487,113.395161 C44.2572487,162.327977 64.3153739,206.422221 96.4029819,237.385767" id="Oval"></path>
                            <path d="M80.4351135,5.29759534 C74.6396882,22.6466988 71.4924787,41.2703655 71.4924787,60.6532258 C71.4924787,133.369075 115.786803,195.399914 178.028601,219.534242" id="Oval"></path>
                            <path d="M29.5299855,41.3159116 C54.23749,102.731756 112.87775,145.919355 181.2845,145.919355 C198.828204,145.919355 215.729541,143.078796 231.580871,137.818697" id="Oval"></path>
                            <path d="M17.8731197,188.112903 C108.592783,188.112903 182.135601,112.156567 182.135601,18.4596774" id="Oval"></path>
                            <path d="M181.743102,20.9904973 C110.55517,39.5815568 57.8748637,106.174711 57.8748637,185.475806 C57.8748637,198.981104 59.4027754,212.117828 62.2898059,224.711644" id="Oval"></path>
                            <path d="M4.80090831,152.456366 C33.2679151,176.917358 69.8665114,191.629032 109.792021,191.629032 C156.669918,191.629032 198.961364,171.347657 228.889269,138.817224" id="Oval"></path>
                            <path d="M0.875190759,101.537044 C21.9662138,170.090096 84.0939604,219.758065 157.453673,219.758065 C165.172658,219.758065 172.767288,219.208167 180.202843,218.144234" id="Oval"></path>
                            <path d="M78.5210251,106.47451 C49.5451713,117.128354 24.3188779,135.946864 5.43764875,160.249355" id="Oval"></path>
                            <path d="M133.860937,197.994087 C116.930736,204.218984 102.191353,215.214386 91.1593059,229.414004" id="Oval" transform="translate(112.510121, 213.704045) rotate(-195.000000) translate(-112.510121, -213.704045) "></path>
                        </g>
                        <g id="Group">
                            <path d="M73.3866667,204.8 C65.8461389,204.8 59.7333333,198.476408 59.7333333,190.675862 C59.7333333,182.875316 65.8461389,176.551724 73.3866667,176.551724 C80.9271945,176.551724 87.04,182.875316 87.04,190.675862 C87.04,198.476408 80.9271945,204.8 73.3866667,204.8 Z M145.066667,210.096552 C138.468705,210.096552 133.12,204.563409 133.12,197.737931 C133.12,190.912453 138.468705,185.37931 145.066667,185.37931 C151.664628,185.37931 157.013333,190.912453 157.013333,197.737931 C157.013333,204.563409 151.664628,210.096552 145.066667,210.096552 Z M106.666667,256 C101.482554,256 97.28,251.652531 97.28,246.289655 C97.28,240.92678 101.482554,236.57931 106.666667,236.57931 C111.85078,236.57931 116.053333,240.92678 116.053333,246.289655 C116.053333,251.652531 111.85078,256 106.666667,256 Z M73.3866667,240.110345 C69.6164028,240.110345 66.56,236.948549 66.56,233.048276 C66.56,229.148003 69.6164028,225.986207 73.3866667,225.986207 C77.1569306,225.986207 80.2133333,229.148003 80.2133333,233.048276 C80.2133333,236.948549 77.1569306,240.110345 73.3866667,240.110345 Z M35.84,208.331034 C32.0697361,208.331034 29.0133333,205.169239 29.0133333,201.268966 C29.0133333,197.368693 32.0697361,194.206897 35.84,194.206897 C39.6102639,194.206897 42.6666667,197.368693 42.6666667,201.268966 C42.6666667,205.169239 39.6102639,208.331034 35.84,208.331034 Z M19.6266667,176.551724 C14.4425538,176.551724 10.24,172.204255 10.24,166.841379 C10.24,161.478504 14.4425538,157.131034 19.6266667,157.131034 C24.8107795,157.131034 29.0133333,161.478504 29.0133333,166.841379 C29.0133333,172.204255 24.8107795,176.551724 19.6266667,176.551724 Z M12.8,127.117241 C5.7307552,127.117241 0,121.188874 0,113.875862 C0,106.56285 5.7307552,100.634483 12.8,100.634483 C19.8692448,100.634483 25.6,106.56285 25.6,113.875862 C25.6,121.188874 19.8692448,127.117241 12.8,127.117241 Z M92.16,125.351724 C86.5046042,125.351724 81.92,120.60903 81.92,114.758621 C81.92,108.908211 86.5046042,104.165517 92.16,104.165517 C97.8153958,104.165517 102.4,108.908211 102.4,114.758621 C102.4,120.60903 97.8153958,125.351724 92.16,125.351724 Z M204.8,105.931034 C200.08717,105.931034 196.266667,101.97879 196.266667,97.1034483 C196.266667,92.228107 200.08717,88.2758621 204.8,88.2758621 C209.51283,88.2758621 213.333333,92.228107 213.333333,97.1034483 C213.333333,101.97879 209.51283,105.931034 204.8,105.931034 Z M124.586667,112.993103 C120.816403,112.993103 117.76,109.831307 117.76,105.931034 C117.76,102.030761 120.816403,98.8689655 124.586667,98.8689655 C128.356931,98.8689655 131.413333,102.030761 131.413333,105.931034 C131.413333,109.831307 128.356931,112.993103 124.586667,112.993103 Z M119.466667,178.317241 C114.753837,178.317241 110.933333,174.364996 110.933333,169.489655 C110.933333,164.614314 114.753837,160.662069 119.466667,160.662069 C124.179497,160.662069 128,164.614314 128,169.489655 C128,174.364996 124.179497,178.317241 119.466667,178.317241 Z M147.626667,155.365517 C142.442554,155.365517 138.24,151.018048 138.24,145.655172 C138.24,140.292297 142.442554,135.944828 147.626667,135.944828 C152.81078,135.944828 157.013333,140.292297 157.013333,145.655172 C157.013333,151.018048 152.81078,155.365517 147.626667,155.365517 Z M61.44,90.0413793 C57.6697361,90.0413793 54.6133333,86.8795833 54.6133333,82.9793103 C54.6133333,79.0790374 57.6697361,75.9172414 61.44,75.9172414 C65.2102639,75.9172414 68.2666667,79.0790374 68.2666667,82.9793103 C68.2666667,86.8795833 65.2102639,90.0413793 61.44,90.0413793 Z M40.96,56.4965517 C36.2471701,56.4965517 32.4266667,52.5443068 32.4266667,47.6689655 C32.4266667,42.7936243 36.2471701,38.8413793 40.96,38.8413793 C45.6728299,38.8413793 49.4933333,42.7936243 49.4933333,47.6689655 C49.4933333,52.5443068 45.6728299,56.4965517 40.96,56.4965517 Z M93.8666667,26.4827586 C87.2687049,26.4827586 81.92,20.9496157 81.92,14.1241379 C81.92,7.2986602 87.2687049,1.76551724 93.8666667,1.76551724 C100.464628,1.76551724 105.813333,7.2986602 105.813333,14.1241379 C105.813333,20.9496157 100.464628,26.4827586 93.8666667,26.4827586 Z M145.92,19.4206897 C140.735887,19.4206897 136.533333,15.0732202 136.533333,9.71034483 C136.533333,4.34746946 140.735887,0 145.92,0 C151.104113,0 155.306667,4.34746946 155.306667,9.71034483 C155.306667,15.0732202 151.104113,19.4206897 145.92,19.4206897 Z M193.706667,42.3724138 C186.637422,42.3724138 180.906667,36.4440463 180.906667,29.1310345 C180.906667,21.8180226 186.637422,15.8896552 193.706667,15.8896552 C200.775911,15.8896552 206.506667,21.8180226 206.506667,29.1310345 C206.506667,36.4440463 200.775911,42.3724138 193.706667,42.3724138 Z M239.786667,97.1034483 C233.659988,97.1034483 228.693333,91.9655298 228.693333,85.6275862 C228.693333,79.2896426 233.659988,74.1517241 239.786667,74.1517241 C245.913345,74.1517241 250.88,79.2896426 250.88,85.6275862 C250.88,91.9655298 245.913345,97.1034483 239.786667,97.1034483 Z M244.053333,157.131034 C237.455372,157.131034 232.106667,151.597892 232.106667,144.772414 C232.106667,137.946936 237.455372,132.413793 244.053333,132.413793 C250.651295,132.413793 256,137.946936 256,144.772414 C256,151.597892 250.651295,157.131034 244.053333,157.131034 Z M195.413333,240.110345 C189.286655,240.110345 184.32,234.972426 184.32,228.634483 C184.32,222.296539 189.286655,217.158621 195.413333,217.158621 C201.540012,217.158621 206.506667,222.296539 206.506667,228.634483 C206.506667,234.972426 201.540012,240.110345 195.413333,240.110345 Z" id="Combined-Shape" fill="url(#linearGradient-1)"></path>
                            <ellipse id="Oval-2" fill="#4C9CC0" cx="171.52" cy="172.137931" rx="5.97333333" ry="6.17931034"></ellipse>
                            <ellipse id="Oval-2" fill="#4C9CC0" cx="127.146667" cy="41.4896552" rx="7.68" ry="7.94482759"></ellipse>
                            <ellipse id="Oval-2" fill="#4C9CC0" cx="38.4" cy="90.9241379" rx="5.97333333" ry="6.17931034"></ellipse>
                        </g>
                    </g>
                </g>
            </g>
        </g>
    </g>
</svg>