<?xml version="1.0" encoding="UTF-8"?>
<svg width="32px" height="32px" viewBox="0 0 32 32" version="1.1" xmlns="http://www.w3.org/2000/svg" xmlns:xlink="http://www.w3.org/1999/xlink">
    <!-- Generator: Sketch 49.3 (51167) - http://www.bohemiancoding.com/sketch -->
    <title>Group 4 Copy 3</title>
    <desc>Created with Sketch.</desc>
    <defs>
        <linearGradient x1="86.8540337%" y1="4.42260179%" x2="29.6378451%" y2="74.119055%" id="linearGradient-1">
            <stop stop-color="#9D25EE" offset="0%"></stop>
            <stop stop-color="#171717" offset="100%"></stop>
        </linearGradient>
    </defs>
    <g id="🖥-Landing" stroke="none" stroke-width="1" fill="none" fill-rule="evenodd">
        <g id="Desktop" transform="translate(-654.000000, -214.000000)">
            <g id="hero_image" transform="translate(-240.000000, 0.000000)">
                <g id="Group-12" transform="translate(-129.000000, -258.000000)">
                    <g id="Group-4-Copy-3" transform="translate(1023.000000, 472.000000)">
                        <g id="Group-3" transform="translate(1.696970, 1.000000)" fill="#9B9B9B" fill-opacity="0" stroke="#161616">
                            <ellipse id="Oval" cx="14.4687159" cy="14.9435484" rx="14.4687159" ry="14.9435484"></ellipse>
                            <path d="M10.2765905,0.615538097 C7.31406177,4.29130209 5.53215609,9.01792627 5.53215609,14.1743952 C5.53215609,20.2909972 8.03942174,25.8027776 12.0503727,29.6732209" id="Oval"></path>
                            <path d="M10.0543892,0.662199418 C9.32996103,2.83083735 8.93655984,5.15879569 8.93655984,7.58165323 C8.93655984,16.6711344 14.4733504,24.4249893 22.2535751,27.4417803" id="Oval"></path>
                            <path d="M3.69124819,5.16448895 C6.77968625,12.8414695 14.1097188,18.2399194 22.6605625,18.2399194 C24.8535255,18.2399194 26.9661926,17.8848495 28.9476089,17.2273371" id="Oval"></path>
                            <path d="M2.23413996,23.5141129 C13.5740979,23.5141129 22.7669501,14.0195708 22.7669501,2.30745968" id="Oval"></path>
                            <path d="M22.7178877,2.62381216 C13.8193962,4.9476946 7.23435797,13.2718389 7.23435797,23.1844758 C7.23435797,24.872638 7.42534693,26.5147285 7.78622574,28.0889556" id="Oval"></path>
                            <path d="M0.600113539,19.0570458 C4.15848939,22.1146698 8.73331392,23.953629 13.7240026,23.953629 C19.5837398,23.953629 24.8701705,21.4184571 28.6111587,17.352153" id="Oval"></path>
                            <path d="M0.109398845,12.6921305 C2.74577673,21.261262 10.5117451,27.4697581 19.6817092,27.4697581 C20.6465822,27.4697581 21.595911,27.4010209 22.5253553,27.2680292" id="Oval"></path>
                            <path d="M9.81512814,13.3093138 C6.19314642,14.6410443 3.03985974,16.9933579 0.679706093,20.0311694" id="Oval"></path>
                            <path d="M16.7326171,24.7492609 C14.6163421,25.5273731 12.7739192,26.9017982 11.3949132,28.6767504" id="Oval" transform="translate(14.063765, 26.713006) rotate(-195.000000) translate(-14.063765, -26.713006) "></path>
                        </g>
                        <g id="Group">
                            <path d="M9.17333333,25.6 C8.23076736,25.6 7.46666667,24.809551 7.46666667,23.8344828 C7.46666667,22.8594145 8.23076736,22.0689655 9.17333333,22.0689655 C10.1158993,22.0689655 10.88,22.8594145 10.88,23.8344828 C10.88,24.809551 10.1158993,25.6 9.17333333,25.6 Z M18.1333333,26.262069 C17.3085881,26.262069 16.64,25.5704261 16.64,24.7172414 C16.64,23.8640567 17.3085881,23.1724138 18.1333333,23.1724138 C18.9580786,23.1724138 19.6266667,23.8640567 19.6266667,24.7172414 C19.6266667,25.5704261 18.9580786,26.262069 18.1333333,26.262069 Z M13.3333333,32 C12.6853192,32 12.16,31.4565663 12.16,30.7862069 C12.16,30.1158475 12.6853192,29.5724138 13.3333333,29.5724138 C13.9813474,29.5724138 14.5066667,30.1158475 14.5066667,30.7862069 C14.5066667,31.4565663 13.9813474,32 13.3333333,32 Z M9.17333333,30.0137931 C8.70205035,30.0137931 8.32,29.6185686 8.32,29.1310345 C8.32,28.6435004 8.70205035,28.2482759 9.17333333,28.2482759 C9.64461632,28.2482759 10.0266667,28.6435004 10.0266667,29.1310345 C10.0266667,29.6185686 9.64461632,30.0137931 9.17333333,30.0137931 Z M4.48,26.0413793 C4.00871701,26.0413793 3.62666667,25.6461548 3.62666667,25.1586207 C3.62666667,24.6710866 4.00871701,24.2758621 4.48,24.2758621 C4.95128299,24.2758621 5.33333333,24.6710866 5.33333333,25.1586207 C5.33333333,25.6461548 4.95128299,26.0413793 4.48,26.0413793 Z M2.45333333,22.0689655 C1.80531923,22.0689655 1.28,21.5255318 1.28,20.8551724 C1.28,20.184813 1.80531923,19.6413793 2.45333333,19.6413793 C3.10134744,19.6413793 3.62666667,20.184813 3.62666667,20.8551724 C3.62666667,21.5255318 3.10134744,22.0689655 2.45333333,22.0689655 Z M1.6,15.8896552 C0.7163444,15.8896552 0,15.1486092 0,14.2344828 C0,13.3203563 0.7163444,12.5793103 1.6,12.5793103 C2.4836556,12.5793103 3.2,13.3203563 3.2,14.2344828 C3.2,15.1486092 2.4836556,15.8896552 1.6,15.8896552 Z M11.52,15.6689655 C10.8130755,15.6689655 10.24,15.0761288 10.24,14.3448276 C10.24,13.6135264 10.8130755,13.0206897 11.52,13.0206897 C12.2269245,13.0206897 12.8,13.6135264 12.8,14.3448276 C12.8,15.0761288 12.2269245,15.6689655 11.52,15.6689655 Z M25.6,13.2413793 C25.0108963,13.2413793 24.5333333,12.7473487 24.5333333,12.137931 C24.5333333,11.5285134 25.0108963,11.0344828 25.6,11.0344828 C26.1891037,11.0344828 26.6666667,11.5285134 26.6666667,12.137931 C26.6666667,12.7473487 26.1891037,13.2413793 25.6,13.2413793 Z M15.5733333,14.1241379 C15.1020503,14.1241379 14.72,13.7289134 14.72,13.2413793 C14.72,12.7538452 15.1020503,12.3586207 15.5733333,12.3586207 C16.0446163,12.3586207 16.4266667,12.7538452 16.4266667,13.2413793 C16.4266667,13.7289134 16.0446163,14.1241379 15.5733333,14.1241379 Z M14.9333333,22.2896552 C14.3442296,22.2896552 13.8666667,21.7956246 13.8666667,21.1862069 C13.8666667,20.5767892 14.3442296,20.0827586 14.9333333,20.0827586 C15.5224371,20.0827586 16,20.5767892 16,21.1862069 C16,21.7956246 15.5224371,22.2896552 14.9333333,22.2896552 Z M18.4533333,19.4206897 C17.8053192,19.4206897 17.28,18.877256 17.28,18.2068966 C17.28,17.5365371 17.8053192,16.9931034 18.4533333,16.9931034 C19.1013474,16.9931034 19.6266667,17.5365371 19.6266667,18.2068966 C19.6266667,18.877256 19.1013474,19.4206897 18.4533333,19.4206897 Z M7.68,11.2551724 C7.20871701,11.2551724 6.82666667,10.8599479 6.82666667,10.3724138 C6.82666667,9.88487967 7.20871701,9.48965517 7.68,9.48965517 C8.15128299,9.48965517 8.53333333,9.88487967 8.53333333,10.3724138 C8.53333333,10.8599479 8.15128299,11.2551724 7.68,11.2551724 Z M5.12,7.06206897 C4.53089627,7.06206897 4.05333333,6.56803834 4.05333333,5.95862069 C4.05333333,5.34920303 4.53089627,4.85517241 5.12,4.85517241 C5.70910373,4.85517241 6.18666667,5.34920303 6.18666667,5.95862069 C6.18666667,6.56803834 5.70910373,7.06206897 5.12,7.06206897 Z M11.7333333,3.31034483 C10.9085881,3.31034483 10.24,2.61870196 10.24,1.76551724 C10.24,0.912332524 10.9085881,0.220689655 11.7333333,0.220689655 C12.5580786,0.220689655 13.2266667,0.912332524 13.2266667,1.76551724 C13.2266667,2.61870196 12.5580786,3.31034483 11.7333333,3.31034483 Z M18.24,2.42758621 C17.5919859,2.42758621 17.0666667,1.88415252 17.0666667,1.2137931 C17.0666667,0.543433683 17.5919859,0 18.24,0 C18.8880141,0 19.4133333,0.543433683 19.4133333,1.2137931 C19.4133333,1.88415252 18.8880141,2.42758621 18.24,2.42758621 Z M24.2133333,5.29655172 C23.3296777,5.29655172 22.6133333,4.55550579 22.6133333,3.64137931 C22.6133333,2.72725283 23.3296777,1.9862069 24.2133333,1.9862069 C25.0969889,1.9862069 25.8133333,2.72725283 25.8133333,3.64137931 C25.8133333,4.55550579 25.0969889,5.29655172 24.2133333,5.29655172 Z M29.9733333,12.137931 C29.2074985,12.137931 28.5866667,11.4956912 28.5866667,10.7034483 C28.5866667,9.91120532 29.2074985,9.26896552 29.9733333,9.26896552 C30.7391682,9.26896552 31.36,9.91120532 31.36,10.7034483 C31.36,11.4956912 30.7391682,12.137931 29.9733333,12.137931 Z M30.5066667,19.6413793 C29.6819214,19.6413793 29.0133333,18.9497364 29.0133333,18.0965517 C29.0133333,17.243367 29.6819214,16.5517241 30.5066667,16.5517241 C31.3314119,16.5517241 32,17.243367 32,18.0965517 C32,18.9497364 31.3314119,19.6413793 30.5066667,19.6413793 Z M24.4266667,30.0137931 C23.6608318,30.0137931 23.04,29.3715533 23.04,28.5793103 C23.04,27.7870674 23.6608318,27.1448276 24.4266667,27.1448276 C25.1925015,27.1448276 25.8133333,27.7870674 25.8133333,28.5793103 C25.8133333,29.3715533 25.1925015,30.0137931 24.4266667,30.0137931 Z" id="Combined-Shape" fill="url(#linearGradient-1)"></path>
                            <ellipse id="Oval-2" fill="#4C9CC0" cx="21.44" cy="21.5172414" rx="1" ry="1"></ellipse>
                            <ellipse id="Oval-2" fill="#4C9CC0" cx="15.8933333" cy="5.1862069" rx="1" ry="1"></ellipse>
                            <ellipse id="Oval-2" fill="#4C9CC0" cx="4.8" cy="11.3655172" rx="1" ry="1"></ellipse>
                        </g>
                    </g>
                </g>
            </g>
        </g>
    </g>
</svg>