<?xml version="1.0" encoding="UTF-8"?>
<svg width="132px" height="128px" viewBox="0 0 132 128" version="1.1" xmlns="http://www.w3.org/2000/svg" xmlns:xlink="http://www.w3.org/1999/xlink">
    <!-- Generator: Sketch 49.3 (51167) - http://www.bohemiancoding.com/sketch -->
    <title>Group 4 Copy 3</title>
    <desc>Created with Sketch.</desc>
    <defs>
        <linearGradient x1="86.8540337%" y1="4.42260179%" x2="29.6378451%" y2="74.119055%" id="linearGradient-1">
            <stop stop-color="#9D25EE" offset="0%"></stop>
            <stop stop-color="#171717" offset="100%"></stop>
        </linearGradient>
    </defs>
    <g id="🖥-Landing" stroke="none" stroke-width="1" fill="none" fill-rule="evenodd">
        <g id="Desktop" transform="translate(-654.000000, -214.000000)">
            <g id="hero_image" transform="translate(-240.000000, 0.000000)">
                <g id="Group-12" transform="translate(-129.000000, -258.000000)">
                    <g id="Group-4-Copy-3" transform="translate(1023.000000, 472.000000)">
                        <g id="Group-3" transform="translate(7.000000, 4.000000)" fill="#9B9B9B" fill-opacity="0" stroke="#161616">
                            <ellipse id="Oval" cx="59.6834532" cy="59.7741935" rx="59.6834532" ry="59.7741935"></ellipse>
                            <path d="M42.3909357,2.46215239 C30.1705048,17.1652084 22.8201439,36.0717051 22.8201439,56.6975806 C22.8201439,81.1639886 33.1626147,103.21111 49.7077876,118.692884" id="Oval"></path>
                            <path d="M41.4743554,2.64879767 C38.4860892,11.3233494 36.8633094,20.6351828 36.8633094,30.3266129 C36.8633094,66.6845377 59.7025705,97.6999571 91.7959973,109.767121" id="Oval"></path>
                            <path d="M15.2263988,20.6579558 C27.9662058,51.3658781 58.2025901,72.9596774 93.4748201,72.9596774 C102.520793,72.9596774 111.235544,71.5393982 119.408887,68.9093485" id="Oval"></path>
                            <path d="M9.21582734,94.0564516 C55.9931537,94.0564516 93.9136691,56.0782834 93.9136691,9.22983871" id="Oval"></path>
                            <path d="M93.7112869,10.4952487 C57.0050094,19.7907784 29.8417266,53.0873557 29.8417266,92.7379032 C29.8417266,99.4905521 30.6295561,106.058914 32.1181812,112.355822" id="Oval"></path>
                            <path d="M2.47546835,76.2281831 C17.1537687,88.4586792 36.0249199,95.8145161 56.6115108,95.8145161 C80.7829266,95.8145161 102.589453,85.6738286 118.02103,69.4086118" id="Oval"></path>
                            <path d="M0.451270235,50.7685221 C11.326329,85.0450479 43.3609483,109.879032 81.1870504,109.879032 C85.1671517,109.879032 89.0831328,109.604084 92.9170907,109.072117" id="Oval"></path>
                            <path d="M40.4874036,53.2372552 C25.546729,58.5641772 12.5394214,67.9734318 2.80378763,80.1246775" id="Oval"></path>
                            <path d="M69.0220456,98.9970436 C60.292411,102.109492 52.6924166,107.607193 47.0040171,114.707002" id="Oval" transform="translate(58.013031, 106.852023) rotate(-195.000000) translate(-58.013031, -106.852023) "></path>
                        </g>
                        <g id="Group">
                            <path d="M37.84,102.4 C33.9519154,102.4 30.8,99.238204 30.8,95.337931 C30.8,91.437658 33.9519154,88.2758621 37.84,88.2758621 C41.7280846,88.2758621 44.88,91.437658 44.88,95.337931 C44.88,99.238204 41.7280846,102.4 37.84,102.4 Z M74.8,105.048276 C71.3979259,105.048276 68.64,102.281704 68.64,98.8689655 C68.64,95.4562266 71.3979259,92.6896552 74.8,92.6896552 C78.2020741,92.6896552 80.96,95.4562266 80.96,98.8689655 C80.96,102.281704 78.2020741,105.048276 74.8,105.048276 Z M55,128 C52.3269418,128 50.16,125.826265 50.16,123.144828 C50.16,120.46339 52.3269418,118.289655 55,118.289655 C57.6730582,118.289655 59.84,120.46339 59.84,123.144828 C59.84,125.826265 57.6730582,128 55,128 Z M37.84,120.055172 C35.8959577,120.055172 34.32,118.474274 34.32,116.524138 C34.32,114.574001 35.8959577,112.993103 37.84,112.993103 C39.7840423,112.993103 41.36,114.574001 41.36,116.524138 C41.36,118.474274 39.7840423,120.055172 37.84,120.055172 Z M18.48,104.165517 C16.5359577,104.165517 14.96,102.584619 14.96,100.634483 C14.96,98.6843463 16.5359577,97.1034483 18.48,97.1034483 C20.4240423,97.1034483 22,98.6843463 22,100.634483 C22,102.584619 20.4240423,104.165517 18.48,104.165517 Z M10.12,88.2758621 C7.44694181,88.2758621 5.28,86.1021273 5.28,83.4206897 C5.28,80.739252 7.44694181,78.5655172 10.12,78.5655172 C12.7930582,78.5655172 14.96,80.739252 14.96,83.4206897 C14.96,86.1021273 12.7930582,88.2758621 10.12,88.2758621 Z M6.6,63.5586207 C2.95492065,63.5586207 0,60.594437 0,56.937931 C0,53.2814251 2.95492065,50.3172414 6.6,50.3172414 C10.2450793,50.3172414 13.2,53.2814251 13.2,56.937931 C13.2,60.594437 10.2450793,63.5586207 6.6,63.5586207 Z M47.52,62.6758621 C44.6039365,62.6758621 42.24,60.3045151 42.24,57.3793103 C42.24,54.4541056 44.6039365,52.0827586 47.52,52.0827586 C50.4360635,52.0827586 52.8,54.4541056 52.8,57.3793103 C52.8,60.3045151 50.4360635,62.6758621 47.52,62.6758621 Z M105.6,52.9655172 C103.169947,52.9655172 101.2,50.9893948 101.2,48.5517241 C101.2,46.1140535 103.169947,44.137931 105.6,44.137931 C108.030053,44.137931 110,46.1140535 110,48.5517241 C110,50.9893948 108.030053,52.9655172 105.6,52.9655172 Z M64.24,56.4965517 C62.2959577,56.4965517 60.72,54.9156537 60.72,52.9655172 C60.72,51.0153807 62.2959577,49.4344828 64.24,49.4344828 C66.1840423,49.4344828 67.76,51.0153807 67.76,52.9655172 C67.76,54.9156537 66.1840423,56.4965517 64.24,56.4965517 Z M61.6,89.1586207 C59.1699471,89.1586207 57.2,87.1824982 57.2,84.7448276 C57.2,82.307157 59.1699471,80.3310345 61.6,80.3310345 C64.0300529,80.3310345 66,82.307157 66,84.7448276 C66,87.1824982 64.0300529,89.1586207 61.6,89.1586207 Z M76.12,77.6827586 C73.4469418,77.6827586 71.28,75.5090239 71.28,72.8275862 C71.28,70.1461485 73.4469418,67.9724138 76.12,67.9724138 C78.7930582,67.9724138 80.96,70.1461485 80.96,72.8275862 C80.96,75.5090239 78.7930582,77.6827586 76.12,77.6827586 Z M31.68,45.0206897 C29.7359577,45.0206897 28.16,43.4397917 28.16,41.4896552 C28.16,39.5395187 29.7359577,37.9586207 31.68,37.9586207 C33.6240423,37.9586207 35.2,39.5395187 35.2,41.4896552 C35.2,43.4397917 33.6240423,45.0206897 31.68,45.0206897 Z M21.12,28.2482759 C18.6899471,28.2482759 16.72,26.2721534 16.72,23.8344828 C16.72,21.3968121 18.6899471,19.4206897 21.12,19.4206897 C23.5500529,19.4206897 25.52,21.3968121 25.52,23.8344828 C25.52,26.2721534 23.5500529,28.2482759 21.12,28.2482759 Z M48.4,13.2413793 C44.9979259,13.2413793 42.24,10.4748078 42.24,7.06206897 C42.24,3.6493301 44.9979259,0.882758621 48.4,0.882758621 C51.8020741,0.882758621 54.56,3.6493301 54.56,7.06206897 C54.56,10.4748078 51.8020741,13.2413793 48.4,13.2413793 Z M75.24,9.71034483 C72.5669418,9.71034483 70.4,7.5366101 70.4,4.85517241 C70.4,2.17373473 72.5669418,0 75.24,0 C77.9130582,0 80.08,2.17373473 80.08,4.85517241 C80.08,7.5366101 77.9130582,9.71034483 75.24,9.71034483 Z M99.88,21.1862069 C96.2349207,21.1862069 93.28,18.2220232 93.28,14.5655172 C93.28,10.9090113 96.2349207,7.94482759 99.88,7.94482759 C103.525079,7.94482759 106.48,10.9090113 106.48,14.5655172 C106.48,18.2220232 103.525079,21.1862069 99.88,21.1862069 Z M123.64,48.5517241 C120.480931,48.5517241 117.92,45.9827649 117.92,42.8137931 C117.92,39.6448213 120.480931,37.0758621 123.64,37.0758621 C126.799069,37.0758621 129.36,39.6448213 129.36,42.8137931 C129.36,45.9827649 126.799069,48.5517241 123.64,48.5517241 Z M125.84,78.5655172 C122.437926,78.5655172 119.68,75.7989458 119.68,72.3862069 C119.68,68.973468 122.437926,66.2068966 125.84,66.2068966 C129.242074,66.2068966 132,68.973468 132,72.3862069 C132,75.7989458 129.242074,78.5655172 125.84,78.5655172 Z M100.76,120.055172 C97.6009312,120.055172 95.04,117.486213 95.04,114.317241 C95.04,111.14827 97.6009312,108.57931 100.76,108.57931 C103.919069,108.57931 106.48,111.14827 106.48,114.317241 C106.48,117.486213 103.919069,120.055172 100.76,120.055172 Z" id="Combined-Shape" fill="url(#linearGradient-1)"></path>
                            <ellipse id="Oval-2" fill="#4C9CC0" cx="88.44" cy="86.0689655" rx="3.08" ry="3.08965517"></ellipse>
                            <ellipse id="Oval-2" fill="#4C9CC0" cx="65.56" cy="20.7448276" rx="3.96" ry="3.97241379"></ellipse>
                            <ellipse id="Oval-2" fill="#4C9CC0" cx="19.8" cy="45.462069" rx="3.08" ry="3.08965517"></ellipse>
                        </g>
                    </g>
                </g>
            </g>
        </g>
    </g>
</svg>